<?xml version="1.0" standalone="no"?>
<!DOCTYPE svg PUBLIC "-//W3C//DTD SVG 20010904//EN"
 "http://www.w3.org/TR/2001/REC-SVG-20010904/DTD/svg10.dtd">
<svg version="1.0" xmlns="http://www.w3.org/2000/svg"
 width="700.000000pt" height="700.000000pt" viewBox="0 0 700.000000 700.000000"
 preserveAspectRatio="xMidYMid meet">
<metadata>
Created by potrace 1.11, written by Peter Selinger 2001-2013
</metadata>
<g transform="translate(0.000000,700.000000) scale(0.100000,-0.100000)"
fill="#000000" stroke="none">
<path d="M4197 6254 c-1 -1 -81 -4 -177 -8 -204 -7 -290 -12 -420 -26 -52 -6
-117 -13 -145 -16 -27 -2 -61 -7 -75 -9 -14 -2 -45 -7 -70 -10 -40 -5 -182
-28 -265 -42 -16 -3 -70 -14 -120 -25 -49 -10 -101 -21 -115 -24 -163 -32
-580 -167 -740 -241 -499 -227 -855 -505 -1155 -898 -105 -137 -227 -365 -301
-560 -39 -104 -96 -298 -110 -375 -2 -14 -9 -47 -14 -75 -5 -27 -12 -72 -15
-100 -3 -27 -8 -59 -10 -70 -18 -92 -24 -403 -10 -590 4 -60 7 -120 6 -132 0
-13 1 -23 3 -23 2 0 38 39 81 88 133 151 367 383 520 517 74 65 320 258 415
326 563 402 1183 695 1905 901 39 11 78 21 88 23 10 3 27 7 37 10 10 3 27 8
37 10 10 2 47 10 83 18 123 29 295 65 330 71 19 3 44 7 55 10 45 9 111 20 130
21 11 1 40 5 65 9 73 12 91 15 180 25 190 23 255 28 478 36 94 4 172 5 172 2
0 -3 -17 -11 -37 -18 -193 -62 -693 -277 -1048 -450 -93 -45 -172 -83 -175
-83 -3 -1 -12 -6 -20 -11 -8 -5 -53 -29 -100 -53 -385 -198 -822 -454 -1155
-675 -794 -529 -1452 -1125 -1899 -1722 -54 -71 -103 -137 -109 -146 -135
-179 -328 -512 -436 -752 -53 -117 -62 -143 -57 -177 21 -149 261 -291 436
-257 9 1 32 13 52 25 31 19 50 48 109 165 118 234 274 498 426 723 57 85 269
373 282 384 3 3 23 26 44 52 l37 47 173 -59 c207 -70 270 -89 452 -134 124
-31 321 -71 394 -81 56 -7 117 -16 141 -20 26 -5 133 -14 235 -21 71 -4 347
-4 390 0 17 2 62 6 100 10 141 14 371 63 479 102 22 8 65 24 94 34 146 53 346
167 483 276 86 68 258 237 315 309 21 28 44 55 50 60 23 20 146 200 207 303
107 178 181 317 288 537 253 524 361 740 436 875 292 529 566 856 980 1168 45
34 84 62 87 62 3 0 31 17 63 39 32 21 96 61 143 88 46 28 89 57 94 66 15 23
-31 67 -107 104 -110 54 -417 149 -572 179 -11 2 -40 8 -65 14 -25 5 -56 12
-70 14 -14 2 -59 11 -100 20 -81 16 -85 17 -235 41 -123 20 -140 23 -240 35
-121 16 -145 19 -205 25 -30 3 -71 8 -90 10 -59 8 -130 14 -235 21 -55 3 -118
7 -140 9 -145 12 -728 27 -738 19z"/>
</g>
</svg>
