<?xml version="1.0" encoding="UTF-8"?>
<!-- Generator: Adobe Illustrator 21.0.2, SVG Export Plug-In . SVG Version: 6.00 Build 0)  -->
<svg version="1.1" id="Layer_1" xmlns="http://www.w3.org/2000/svg" xmlns:xlink="http://www.w3.org/1999/xlink" x="0px" y="0px" width="218.1px" height="64px" viewBox="0 0 218.1 64" style="enable-background:new 0 0 218.1 64;" xml:space="preserve">
<style type="text/css">
	.st0{fill:#0054A4;}
	.st1{fill:#FF5F00;}
	.st2{fill:#FFFFFF;}
</style>
<polygon class="st0" points="26.1,0.8 13.1,13.7 13.1,0.8 0.7,0.8 0.7,34.9 13.1,34.9 13.1,26.6 19.6,20.9 28,34.9 43.2,34.9   28,13.6 42.6,0.8 "/>
<path class="st0" d="M65,9.6l4.4,12.2h-8.7L65,9.6z M58.4,0.8l-15,34.1H56l2-5.7h14.1l2,5.7H87L72,0.8H58.4z"/>
<path class="st0" d="M91.1,0.8h18.4c3.6,0,6.5,0.5,8.9,1.3c2.2,0.8,4.1,2.1,5.6,3.6c1.5,1.6,2.6,3.4,3.1,5.5  c0.7,2.1,0.9,4.3,0.9,6.6c0,3.6-0.5,6.5-1.5,8.5c-0.9,2-2.3,3.7-4.1,5c-1.8,1.4-3.6,2.2-5.6,2.7c-2.7,0.6-5.2,0.9-7.4,0.9H91.1V0.8z   M103.6,8.5v18.6h3c2.6,0,4.4-0.2,5.6-0.7c1-0.5,2-1.4,2.6-2.6c0.6-1.2,0.9-3.1,0.9-5.9c0-3.6-0.7-6.1-2.1-7.4c-1.4-1.3-3.7-2-7-2  C106.6,8.5,103.6,8.5,103.6,8.5z"/>
<path class="st0" d="M134.8,34.9V0.8h20.7c3.8,0,6.8,0.2,8.9,0.8c2,0.6,3.6,1.6,4.9,3.1c1.3,1.5,1.9,3.4,1.9,5.6  c0,1.9-0.5,3.5-1.4,4.9c-0.9,1.4-2.2,2.4-4,3.4c-1,0.6-2.6,1-4.4,1.4c1.5,0.5,2.6,0.8,3.3,1.3c0.5,0.2,1.2,0.9,2,1.9  c0.8,0.9,1.4,1.6,1.8,2.1l6.1,9.9h-14.1l-6.6-10.5c-0.8-1.4-1.6-2.2-2.2-2.7c-0.9-0.6-1.9-0.8-3-0.8h-1V35h-12.6L134.8,34.9  L134.8,34.9z M147.2,14.7h5.2c0.6,0,1.6-0.1,3.3-0.5c0.8-0.1,1.5-0.5,2-1c0.5-0.6,0.8-1.3,0.8-2c0-1.2-0.5-2-1.3-2.6  c-0.8-0.6-2.3-0.9-4.7-0.9h-5.5v7L147.2,14.7L147.2,14.7z"/>
<path class="st0" d="M175.6,17.9c0-5.6,1.9-9.9,5.5-13c3.6-3.1,8.7-4.7,15.3-4.7c6.6,0,11.9,1.5,15.5,4.5s5.5,7.3,5.5,12.8  c0,4-0.8,7.2-2.3,9.8c-1.6,2.6-3.8,4.5-6.9,5.9c-3,1.4-6.8,2.1-11.2,2.1c-4.5,0-8.3-0.6-11.3-1.9c-2.9-1.3-5.4-3.1-7.2-5.8  C176.6,25.3,175.6,21.9,175.6,17.9 M188.1,17.9c0,3.5,0.7,5.9,2.2,7.4c1.5,1.5,3.6,2.2,6.2,2.2c2.7,0,4.8-0.7,6.2-2.2  c1.5-1.5,2.2-4.1,2.2-7.9c0-3.3-0.8-5.6-2.3-7c-1.5-1.5-3.6-2.2-6.2-2.2s-4.5,0.7-6.1,2.2C188.8,12,188.1,14.4,188.1,17.9"/>
<rect x="0.7" y="44.1" class="st1" width="215.5" height="19.7"/>
<polygon class="st2" points="11.2,59.5 9.4,59.5 6.2,49.7 8.7,49.7 10.3,55.2 11.9,49.7 14.5,49.7 "/>
<rect x="19" y="49.7" class="st2" width="2.4" height="9.8"/>
<path class="st2" d="M29.7,59.6c-1.5,0-2.7-0.2-3.7-1.3l1.5-1.5c0.5,0.5,1.4,0.7,2.2,0.7c0.9,0,1.4-0.3,1.4-0.9c0-0.2,0-0.5-0.2-0.6  c-0.1-0.1-0.3-0.2-0.7-0.2L29,55.6c-0.8-0.1-1.5-0.5-2-0.8c-0.5-0.5-0.7-1.2-0.7-2c0-1.8,1.4-3.1,3.6-3.1c1.4,0,2.4,0.3,3.3,1.2  l-1.5,1.5c-0.6-0.6-1.4-0.6-1.9-0.6c-0.8,0-1.2,0.5-1.2,0.9c0,0.1,0,0.3,0.2,0.5c0.1,0.1,0.3,0.2,0.7,0.2l1.2,0.1  c0.9,0.1,1.5,0.3,1.9,0.8c0.5,0.5,0.7,1.3,0.7,2.1C33.5,58.4,31.8,59.6,29.7,59.6"/>
<rect x="38.7" y="49.7" class="st2" width="2.4" height="9.8"/>
<path class="st2" d="M50.9,52.2c-0.2-0.2-0.5-0.5-0.9-0.5c-0.5,0-0.8,0.2-0.9,0.5c-0.2,0.2-0.3,0.6-0.3,2.4c0,1.8,0.1,2.1,0.3,2.4  c0.2,0.2,0.5,0.5,0.9,0.5c0.5,0,0.8-0.2,0.9-0.5c0.2-0.2,0.3-0.6,0.3-2.4C51.3,52.8,51.2,52.5,50.9,52.2 M52.8,58.4  c-0.7,0.7-1.5,1-2.7,1s-2-0.3-2.7-1c-1-1-0.9-2.4-0.9-3.8c0-1.5,0-2.8,0.9-3.8c0.7-0.7,1.5-1,2.7-1s2,0.3,2.7,1c1,1,0.9,2.4,0.9,3.8  C53.7,56.1,53.7,57.4,52.8,58.4"/>
<polygon class="st2" points="64.4,59.5 61.4,54.6 61.4,59.5 59,59.5 59,49.7 61.1,49.7 64.2,54.6 64.2,49.7 66.6,49.7 66.6,59.5 "/>
<path class="st2" d="M75.7,53.4L74.8,56h1.8L75.7,53.4z M77.6,59.5L77.1,58h-3l-0.5,1.5h-2.6l3.6-9.8h1.9l3.6,9.8H77.6L77.6,59.5z"/>
<path class="st2" d="M88.4,51.8H87v2h1.4c0.7,0,1-0.5,1-0.9C89.5,52.4,89.1,51.8,88.4,51.8 M89.6,59.5l-1.8-3.6H87v3.6h-2.4v-9.8  h3.8c2.2,0,3.4,1.5,3.4,3.1c0,1.3-0.8,2.2-1.6,2.6l2.1,4.1L89.6,59.5L89.6,59.5z"/>
<rect x="97.2" y="49.7" class="st2" width="2.4" height="9.8"/>
<polygon class="st2" points="105.2,59.5 105.2,49.7 111.8,49.7 111.8,51.8 107.5,51.8 107.5,53.4 111.1,53.4 111.1,55.6 107.5,55.6   107.5,57.4 111.8,57.4 111.8,59.5 "/>
<path class="st2" d="M119.9,59.6c-1.5,0-2.7-0.2-3.7-1.3l1.5-1.5c0.5,0.5,1.4,0.7,2.2,0.7c0.9,0,1.4-0.3,1.4-0.9  c0-0.2,0-0.5-0.2-0.6c-0.1-0.1-0.3-0.2-0.7-0.2l-1.2-0.1c-0.8-0.1-1.5-0.5-2-0.8c-0.5-0.5-0.7-1.2-0.7-2c0-1.8,1.4-3.1,3.6-3.1  c1.4,0,2.4,0.3,3.3,1.2l-1.5,1.5c-0.6-0.6-1.4-0.6-1.9-0.6c-0.8,0-1.2,0.5-1.2,0.9c0,0.1,0,0.3,0.2,0.5c0.1,0.1,0.3,0.2,0.7,0.2  l1.2,0.1c0.9,0.1,1.5,0.3,1.9,0.8c0.5,0.5,0.7,1.3,0.7,2.1C123.6,58.4,122,59.6,119.9,59.6"/>
<polygon class="st2" points="144.2,59.5 142.2,59.5 140.6,54.7 139.1,59.5 137.1,59.5 134.4,49.7 136.9,49.7 138.2,54.8 139.8,49.7   141.5,49.7 143,54.8 144.3,49.7 146.9,49.7 "/>
<path class="st2" d="M154.7,53.4l-0.9,2.6h1.8L154.7,53.4z M156.5,59.5l-0.5-1.5h-3l-0.5,1.5H150l3.6-9.8h1.9l3.6,9.8H156.5  L156.5,59.5z"/>
<polygon class="st2" points="169.2,59.5 166.1,54.6 166.1,59.5 163.7,59.5 163.7,49.7 165.7,49.7 168.9,54.6 168.9,49.7 171.3,49.7   171.3,59.5 "/>
<polygon class="st2" points="181.1,51.8 181.1,59.5 178.7,59.5 178.7,51.8 176.2,51.8 176.2,49.7 183.5,49.7 183.5,51.8 "/>
<polygon class="st2" points="188.5,59.5 188.5,49.7 195.1,49.7 195.1,51.8 190.8,51.8 190.8,53.4 194.5,53.4 194.5,55.6 190.8,55.6   190.8,57.4 195.1,57.4 195.1,59.5 "/>
<path class="st2" d="M205,52.4c-0.2-0.3-0.6-0.6-1.2-0.6h-1v5.5h1c0.6,0,0.9-0.2,1.2-0.6c0.2-0.2,0.2-0.6,0.2-2.2  C205.2,53,205.1,52.6,205,52.4 M206.6,58.6c-0.7,0.7-1.6,0.9-2.7,0.9h-3.6v-9.8h3.6c1,0,2,0.2,2.7,0.9c1.2,1.2,1,2.4,1,4  C207.7,56.1,207.8,57.4,206.6,58.6"/>
</svg>