<?xml version="1.0" encoding="UTF-8"?>
<!-- Generator: Adobe Illustrator 22.1.0, SVG Export Plug-In . SVG Version: 6.00 Build 0)  -->
<svg version="1.1" id="Layer_1" xmlns="http://www.w3.org/2000/svg" xmlns:xlink="http://www.w3.org/1999/xlink" x="0px" y="0px" viewBox="0 0 604.7 289.7" style="enable-background:new 0 0 604.7 289.7;" xml:space="preserve">
<style type="text/css">
	.st0{fill:#CC0000;}
	.st1{fill:#FFFFFF;}
</style>
<title>NC State University brick logo</title>
<rect class="st0" width="604.7" height="289.7"/>
<polygon class="st1" points="84.6,75.5 84.8,75.5 108.4,138.9 132.3,138.9 132.3,52.2 115.3,52.2 115.3,112.2 115.1,112.2   92.1,52.2 67.5,52.2 67.5,138.9 84.6,138.9 "/>
<path class="st1" d="M176.7,127.4c-10.3,0-11.2-9.6-11.2-31.9s1.2-31.8,11.2-31.8c5.4,0,7.4,4.4,7.4,15.9h17.5  c0.7-18.6-6.7-28.9-25.2-28.9c-29.9,0-29.9,22.4-29.9,44.8s0,44.8,29.9,44.8c16.9,0,26.1-7.4,26.1-30.6H185  C184.7,116.6,185.1,127.4,176.7,127.4z"/>
<path class="st1" d="M294.9,115.2c0-27.2-36.5-25.8-36.5-42.2c-0.5-4.7,3-8.8,7.6-9.3c0.6-0.1,1.2-0.1,1.8,0c7.3,0,8.4,6.6,8.4,13.1  h17.6c1.2-18.1-7.5-26.1-25.2-26.1c-22.4,0-28.6,11.2-28.6,24.4c0,25.9,36.5,26.8,36.5,42.4c0.6,4.8-2.7,9.2-7.5,9.8  c-0.5,0.1-1.1,0.1-1.7,0.1c-9.7,0-9.7-7.1-9.7-15.5h-18.7c-0.9,15,3.2,28.2,25.8,28.2C278.4,140.3,294.9,137.7,294.9,115.2z"/>
<polygon class="st1" points="321.2,138.9 339.3,138.9 339.3,66.6 359.5,66.6 359.5,52.2 301,52.2 301,66.6 321.2,66.6 "/>
<path class="st1" d="M378.1,52.2l-24,86.8h17.8l4.9-19.3h24.7l4.8,19.3h19.2l-23.6-86.8H378.1z M380.8,106.4l8.2-37.5l0,0l8.7,37.5  H380.8z"/>
<polygon class="st1" points="458.2,138.9 458.2,66.6 478.4,66.6 478.4,52.2 419.9,52.2 419.9,66.6 440.1,66.6 440.1,138.9 "/>
<polygon class="st1" points="535.1,125.5 505,125.5 505,100.2 531.8,100.2 531.8,86.9 505,86.9 505,65.5 534.2,65.5 534.2,52.2   486.8,52.2 486.8,138.9 535.1,138.9 "/>
<path class="st1" d="M102.7,211.2c0,9.3,0,22.4-14.4,22.4s-14.3-13.1-14.3-22.4v-44.8h-6.7v49.3c0,18.3,9.6,23.1,20.7,23.1  s20.7-4.8,20.7-23.1v-49.3h-5.9V211.2z"/>
<polygon class="st1" points="166.2,228.7 166,228.9 137.3,166.6 127.6,166.6 127.6,237.5 133.9,237.5 133.9,174.8 134.1,174.6   162.9,237.5 172.5,237.5 172.5,166.6 166.2,166.6 "/>
<rect x="192.3" y="166.6" class="st1" width="6.3" height="70.9"/>
<polygon class="st1" points="235.3,230.1 235.1,230.1 218.3,166.6 211.5,166.6 231.4,237.5 239.2,237.5 258.8,166.6 252.8,166.6 "/>
<polygon class="st1" points="278,203.8 302.6,203.8 302.6,198.4 278,198.4 278,171.9 303.7,171.9 303.7,166.6 271.6,166.6   271.6,237.5 304.4,237.5 304.4,232.3 278,232.3 "/>
<path class="st1" d="M344.6,200.7L344.6,200.7c9.5-2.2,11.2-8.1,11.2-16.9c0-12.4-3.4-17-17-17h-19.7v70.9h5.7v-34.5h12  c13.6,0,11.2,13.7,11.2,16.8c0,5.9,0.3,11.7,1,17.6h5.9c0-2.7-0.7-5.5-0.7-8.2C355.1,203.9,354.6,202.8,344.6,200.7z M336,197.9  h-11.2v-26h12.9c7.4,0,11.2,1.9,11.2,11.2C349.3,195.4,344.9,197.9,336,197.9z"/>
<path class="st1" d="M392,198.2c-8.1-5.8-13.3-6.2-13.3-16.7c0-8.3,4.8-11.2,12.4-11.2c9.6,0,11.9,5.4,12.1,14.1h6.3  c0-10.3-3.1-19.4-17.8-19.4c-11.2,0-19.4,5-19.3,17.4c0,7.1,0.7,11.2,14.4,19.7c10.2,6.3,16.6,9.1,16.6,18.7  c0.8,6.1-3.6,11.7-9.7,12.5c-0.9,0.1-1.7,0.1-2.6,0c-12.7,0-13.2-8.2-13.2-16h-6.5c0,13.9,5.6,21.4,19.5,21.4  c9.2,1.2,17.6-5.3,18.8-14.5c0.2-1.5,0.2-3,0-4.4C409.4,206.3,400.5,204.5,392,198.2z"/>
<rect x="427.1" y="166.6" class="st1" width="6.3" height="70.9"/>
<polygon class="st1" points="447,171.9 464.3,171.9 464.3,237.5 470.6,237.5 470.6,171.9 487.8,171.9 487.8,166.6 447,166.6 "/>
<polygon class="st1" points="535.2,166.6 518.2,201.9 502.1,166.6 494.9,166.6 514.9,208.1 514.9,237.5 521.3,237.5 521.3,208.1   541.5,166.6 "/>
</svg>